<?xml version="1.0" encoding="UTF-8" standalone="no"?>
<!-- Created with Inkscape (http://www.inkscape.org/) -->

<svg
   xmlns:dc="http://purl.org/dc/elements/1.1/"
   xmlns:cc="http://creativecommons.org/ns#"
   xmlns:rdf="http://www.w3.org/1999/02/22-rdf-syntax-ns#"
   xmlns:svg="http://www.w3.org/2000/svg"
   xmlns="http://www.w3.org/2000/svg"
   xmlns:sodipodi="http://sodipodi.sourceforge.net/DTD/sodipodi-0.dtd"
   xmlns:inkscape="http://www.inkscape.org/namespaces/inkscape"
   width="210mm"
   height="297mm"
   viewBox="0 0 744.09448819 1052.3622047"
   id="svg2"
   version="1.1"
   inkscape:version="0.91 r13725"
   sodipodi:docname="ArduinoCOMEmulator_Icon2.svg">
  <defs
     id="defs4">
    <filter
       inkscape:menu-tooltip="Pressed metal with a rolled edge"
       inkscape:menu="Bevels"
       inkscape:label="Pressed Steel"
       style="color-interpolation-filters:sRGB;"
       id="filter3557">
      <feGaussianBlur
         result="result1"
         stdDeviation="3"
         id="feGaussianBlur3559" />
      <feBlend
         in2="result1"
         result="result5"
         mode="multiply"
         in="result1"
         id="feBlend3561" />
      <feGaussianBlur
         in="result5"
         result="result6"
         stdDeviation="1"
         id="feGaussianBlur3563" />
      <feComposite
         result="result8"
         in2="result5"
         in="result6"
         operator="xor"
         id="feComposite3565" />
      <feComposite
         in="result6"
         result="fbSourceGraphic"
         operator="xor"
         in2="result8"
         id="feComposite3567" />
      <feSpecularLighting
         in="fbSourceGraphic"
         result="result1"
         lighting-color="rgb(255,255,255)"
         surfaceScale="2"
         specularConstant="2.2"
         specularExponent="55"
         id="feSpecularLighting3569">
        <fePointLight
           x="-5000"
           y="-10000"
           z="20000"
           id="fePointLight3571" />
      </feSpecularLighting>
      <feComposite
         in2="fbSourceGraphic"
         in="result1"
         result="result2"
         operator="in"
         id="feComposite3573" />
      <feComposite
         in="fbSourceGraphic"
         result="result4"
         operator="arithmetic"
         k2="2"
         k3="1"
         in2="result2"
         id="feComposite3575" />
      <feComposite
         in2="result4"
         in="result4"
         operator="in"
         result="result91"
         id="feComposite3577" />
      <feBlend
         mode="darken"
         in2="result91"
         id="feBlend3579" />
    </filter>
  </defs>
  <sodipodi:namedview
     id="base"
     pagecolor="#ffffff"
     bordercolor="#666666"
     borderopacity="1.0"
     inkscape:pageopacity="0.0"
     inkscape:pageshadow="2"
     inkscape:zoom="0.35"
     inkscape:cx="-217.99557"
     inkscape:cy="782.13217"
     inkscape:document-units="px"
     inkscape:current-layer="layer1"
     showgrid="false"
     inkscape:window-width="1366"
     inkscape:window-height="705"
     inkscape:window-x="-8"
     inkscape:window-y="-8"
     inkscape:window-maximized="1" />
  <metadata
     id="metadata7">
    <rdf:RDF>
      <cc:Work
         rdf:about="">
        <dc:format>image/svg+xml</dc:format>
        <dc:type
           rdf:resource="http://purl.org/dc/dcmitype/StillImage" />
        <dc:title />
      </cc:Work>
    </rdf:RDF>
  </metadata>
  <g
     inkscape:label="レイヤー 1"
     inkscape:groupmode="layer"
     id="layer1">
    <rect
       style="fill:#008080;stroke:#ffffff;filter:url(#filter3557)"
       id="rect3555"
       width="194.28572"
       height="172.14285"
       x="133.57143"
       y="174.50507"
       transform="matrix(2.9921645,0,0,3.3092399,-285.36012,-443.78558)" />
    <g
       id="g3828"
       transform="matrix(0.57252909,0,0,0.57252909,690.0821,136.8883)"
       style="display:inline;fill:#ffffff;stroke:#ffffff">
      <path
         style="fill:#ffffff;fill-opacity:1;fill-rule:evenodd;stroke:#ffffff;stroke-width:0.9676486pt;stroke-linecap:butt;stroke-linejoin:miter;stroke-opacity:1"
         d="m -398.73391,44.389292 c -45.5639,0 -82.53892,36.97369 -82.53892,82.539338 0,45.56566 36.97502,82.53934 82.53892,82.53934 45.5639,0 82.53891,-36.97367 82.53891,-82.53934 0,-45.565658 -36.975,-82.539338 -82.53891,-82.539338 z m 0,30.56255 c 28.69781,1e-5 51.97399,23.27784 51.97399,51.976788 0,28.69893 -23.27617,52.00234 -51.97399,52.00234 -28.69784,1e-5 -52.00803,-23.3034 -52.00803,-52.00234 0,-28.698948 23.31019,-51.976788 52.00803,-51.976788 z"
         id="path1291"
         inkscape:connector-curvature="0" />
      <rect
         style="fill:#ffffff;fill-opacity:1;stroke:#ffffff;stroke-width:0.60555232;stroke-linecap:round;stroke-linejoin:round;stroke-miterlimit:4;stroke-opacity:1"
         id="rect1298"
         width="33.543137"
         height="166.11839"
         x="-301.19882"
         y="45.030121" />
      <rect
         style="fill:#ffffff;fill-opacity:1;stroke:#ffffff;stroke-width:0.60555232;stroke-linecap:round;stroke-linejoin:round;stroke-miterlimit:4;stroke-opacity:1"
         id="rect2060"
         width="33.543137"
         height="166.11839"
         x="-72.585709"
         y="45.030121" />
      <path
         style="fill:#ffffff;fill-opacity:1;fill-rule:evenodd;stroke:#ffffff;stroke-width:0.9676486pt;stroke-linecap:butt;stroke-linejoin:miter;stroke-opacity:1"
         d="m -170.12091,44.389292 c -45.5639,0 -82.53892,36.97369 -82.53892,82.539338 0,45.56566 36.97502,82.53934 82.53892,82.53934 45.5639,0 82.538914,-36.97367 82.538914,-82.53934 0,-45.565658 -36.975004,-82.539338 -82.538914,-82.539338 z m 0,30.56255 c 28.69782,1e-5 51.97399,23.27784 51.97399,51.976788 10e-6,28.69893 -23.27617,52.00234 -51.97399,52.00234 -28.69783,1e-5 -52.00803,-23.3034 -52.00803,-52.00234 0,-28.698948 23.3102,-51.976788 52.00803,-51.976788 z"
         id="path2062"
         inkscape:connector-curvature="0" />
      <path
         style="fill:#ffffff;fill-opacity:1;fill-rule:evenodd;stroke:#ffffff;stroke-width:0.9676486pt;stroke-linecap:butt;stroke-linejoin:miter;stroke-opacity:1"
         d="m -627.34692,44.389292 c -45.56389,0 -82.53892,36.97369 -82.53892,82.539338 0,45.56566 36.97503,82.53934 82.53892,82.53934 45.5639,0 82.53892,-36.97367 82.53892,-82.53934 0,-45.565658 -36.97501,-82.539338 -82.53892,-82.539338 z m 0,30.56255 c 28.69782,1e-5 51.97399,23.27784 51.97399,51.976788 10e-6,28.69893 -23.27617,52.00234 -51.97399,52.00234 -28.69783,1e-5 -52.00802,-23.3034 -52.00802,-52.00234 0,-28.698948 23.31019,-51.976788 52.00802,-51.976788 z"
         id="path2064"
         inkscape:connector-curvature="0" />
      <rect
         style="fill:#ffffff;fill-opacity:1;stroke:#ffffff;stroke-width:0.60555232;stroke-linecap:round;stroke-linejoin:round;stroke-miterlimit:4;stroke-opacity:1"
         id="rect2066"
         width="33.543137"
         height="166.11839"
         x="-529.81195"
         y="45.030121" />
    </g>
    <path
       style="fill:#ffffff"
       d="m 377.4209,593.21578 c -7.1525,-1.926 -11.02,-6.2755 -12.2206,-13.7436 -0.2802,-1.7431 -0.489,-11.0197 -0.4911,-21.81353 l 0,-18.7806 5.5992,0 5.5992,0 0,18.641 c 0,20.79463 0.1934,22.70643 2.5335,25.04653 3.2273,3.2273 10.2137,3.3926 13.4234,0.3175 2.5327,-2.4265 2.7071,-4.0343 2.7071,-24.95923 l 0,-19.0458 5.5992,0 5.5992,0 -0.01,18.5473 c -0.01,19.75693 -0.2631,22.67123 -2.3335,26.72963 -2.3581,4.6223 -7.0777,8.1201 -12.4959,9.2611 -3.3676,0.7091 -10.5248,0.603 -13.5081,-0.2003 z m 143.6444,-0.017 c -7.4377,-2.0002 -12.187,-7.3878 -14.3621,-16.2925 -1.1303,-4.6273 -1.1315,-16.5627 0,-20.76373 1.9369,-7.2044 5.7611,-12.5491 10.9449,-15.2966 3.7514,-1.9884 6.1765,-2.5274 11.316,-2.5152 11.0375,0.026 17.6164,5.2427 20.6073,16.3401 1.3157,4.88163 1.4453,16.56523 0.2339,21.06893 -2.599,9.6615 -7.7709,15.3864 -15.8415,17.5349 -3.1324,0.8339 -9.656,0.7955 -12.8965,-0.076 z m 11.0025,-9.5565 c 4.6678,-1.7637 6.8712,-7.281 6.8826,-17.2345 0.015,-12.89573 -3.1568,-18.31403 -10.7202,-18.31403 -2.3624,0 -3.3935,0.2502 -5.0627,1.2284 -4.1406,2.4265 -6.2869,9.6462 -5.7035,19.18533 0.5325,8.7061 2.4771,13.1258 6.5853,14.9671 1.6912,0.758 6.2062,0.8524 8.0185,0.1677 z m -313.4839,8.267 c 0.1703,-0.6021 3.8791,-12.7775 8.2418,-27.0567 l 7.9322,-25.96213 7.5508,-0.01 c 6.7901,-0.01 7.5754,0.076 7.7954,0.8104 0.1347,0.4491 3.8233,12.4998 8.197,26.77943 4.3737,14.2796 7.9522,26.0904 7.9522,26.2462 0,0.1559 -2.7207,0.2833 -6.046,0.2833 l -6.046,0 -0.9884,-3.3828 c -0.5435,-1.8606 -1.2156,-4.1702 -1.4934,-5.1326 l -0.5051,-1.7497 -9.4175,0 -9.4176,0 -0.5051,1.7497 c -0.2778,0.9624 -0.9498,3.272 -1.4934,5.1326 l -0.9883,3.3828 -5.5391,0 -5.5391,0 0.3096,-1.0945 z m 29.647,-18.4083 c 0.1925,-0.3115 -5.6527,-21.39723 -6.0947,-21.98573 -0.08,-0.1069 -0.247,-0.093 -0.3703,0.03 -0.3289,0.3288 -6.3081,20.84883 -6.3081,21.64863 0,0.5611 1.0921,0.6794 6.2715,0.6794 3.4494,0 6.3751,-0.1675 6.5016,-0.3722 z m 23.155,-7.6173 0,-27.12013 11.315,0.2475 c 14.5183,0.3177 17.8739,1.131 21.9074,5.3102 2.1657,2.2438 3.1386,4.5514 3.4856,8.267 0.5727,6.1335 -2.0107,10.95483 -7.1953,13.42823 l -3.1704,1.5125 1.8817,1.889 c 1.3719,1.3771 3.3026,4.7721 7.126,12.5307 2.8843,5.853 5.2441,10.7348 5.2441,10.8484 0,0.1137 -2.887,0.2046 -6.4157,0.2021 l -6.4157,0 -3.9256,-8.7441 c -2.159,-4.8092 -4.4439,-9.4488 -5.0774,-10.3101 -1.3205,-1.7951 -3.5309,-2.8667 -5.9132,-2.8667 l -1.6481,0 0,10.9651 0,10.9651 -5.5992,0 -5.5992,0 0,-27.1201 z m 20.9727,-4.7516 c 1.1415,-0.563 2.4769,-1.577 2.9676,-2.25343 1.2856,-1.7723 1.4981,-4.9355 0.465,-6.9198 -1.3567,-2.6057 -3.3722,-3.4622 -8.6461,-3.674 l -4.5608,-0.1832 0,7.3468 0,7.34683 3.8494,-0.3198 c 2.4764,-0.2057 4.5898,-0.6849 5.9249,-1.3434 z m 24.754,4.7475 0,-27.12403 11.3151,0.2455 c 9.4145,0.2042 11.9227,0.4073 14.9329,1.2092 8.2142,2.188 12.8635,6.9416 15.1263,15.4655 1.2782,4.81503 1.144,14.98023 -0.2636,19.95873 -2.5354,8.9675 -8.8377,14.6814 -18.3443,16.6315 -2.5932,0.5319 -6.2703,0.7378 -13.1814,0.7378 l -9.585,0 0,-27.1242 z m 18.9134,17.7497 c 3.6461,-0.674 5.8268,-1.8425 7.8502,-4.2065 2.7553,-3.2189 3.3321,-5.6354 3.3321,-13.9603 l 0,-7.24423 -1.6331,-3.2543 c -2.493,-4.9678 -6.032,-6.7538 -13.3828,-6.7538 l -3.8814,0 0,17.96413 0,17.9641 2.4806,0 c 1.3643,0 3.7198,-0.2291 5.2344,-0.5091 z m 79.0724,4.9418 0,-4.4327 6.0658,0 6.0658,0 0,-18.1974 0,-18.19743 -6.0658,0 -6.0658,0 0,-4.4327 0,-4.4326 17.7308,0 17.7308,0 0,4.4187 0,4.4188 -5.9492,0.1305 -5.9491,0.1306 -0.1221,18.08083 -0.1222,18.0807 6.0713,0 6.0713,0 0,4.4327 0,4.4327 -17.7308,0 -17.7308,0 0,-4.4327 z m 45.2602,-22.6301 0,-27.06273 6.6753,0 6.6754,0 7.0699,15.0478 c 3.8885,8.27633 7.6989,16.41263 8.4677,18.08073 l 1.3978,3.0329 0.021,-18.08073 0.021,-18.0807 5.1326,0 5.1326,0 0,27.06273 0,27.0628 -6.6491,-0.014 -6.649,-0.015 -8.3988,-18.202 -8.3988,-18.20203 -0.1221,18.21673 -0.122,18.2166 -5.1272,0 -5.1272,0 0,-27.0627 z m -171.003,-42.05163 c -15.3515,-1.1761 -30.3455,-6.7388 -42.7957,-15.8772 -2.1284,-1.5623 -6.3978,-5.3875 -9.4876,-8.5006 -11.0626,-11.1462 -18.2904,-24.695 -21.1904,-39.7225 -1.37,-7.0993 -1.37,-22.2953 0,-29.3946 4.6293,-23.9884 20.9076,-44.8954 43.5816,-55.9739 27.0852,-13.23387 61.6726,-10.66487 87.4493,6.4954 11.7154,7.7992 23.2994,19.8746 34.7075,36.1799 l 0.8162,1.1665 0.8161,-1.1665 c 17.5344,-25.0612 34.1133,-38.9951 54.938,-46.173 14.501,-4.99817 32.4111,-6.22497 47.3079,-3.24057 32.2113,6.45307 57.2095,31.23577 63.6074,63.05907 1.5262,7.5912 1.5232,21.124 -0.01,28.7345 -4.6258,23.0158 -18.7591,42.3668 -39.5509,54.1518 -11.0486,6.2625 -22.2935,9.4309 -36.9282,10.4048 -33.4665,2.2272 -57.8906,-9.951 -80.517,-40.1466 -2.6234,-3.501 -5.8191,-7.99 -7.1017,-9.9756 -1.2825,-1.9855 -2.4369,-3.6101 -2.5652,-3.6101 -0.1283,0 -1.2826,1.6246 -2.5652,3.6101 -7.1941,11.1376 -17.6532,23.5286 -25.5325,30.2489 -18.5927,15.8578 -38.1239,21.7878 -64.9832,19.7302 z m 22.8578,-28.3929 c 17.9551,-3.7002 31.0464,-15.3563 49.219,-43.8233 2.3582,-3.6941 4.3848,-6.9696 4.5034,-7.2787 0.1186,-0.3092 -1.7148,-3.4808 -4.0744,-7.048 -12.594,-19.0403 -24.4648,-31.0993 -36.5833,-37.163 -8.593,-4.2997 -15.4215,-5.9237 -26.3628,-6.2695 -9.0321,-0.2856 -13.3576,0.248 -20.2971,2.5038 -23.6429,7.6853 -38.8692,30.2329 -36.2564,53.69 0.9456,8.4894 3.4243,15.4158 7.9996,22.3537 7.548,11.4455 19.8174,19.7307 33.856,22.8618 7.4419,1.6598 20.3933,1.7399 27.996,0.1732 z m -41.7607,-52.7377 0,-6.0658 27.7627,0 27.7626,0 0,6.0658 0,6.0658 -27.7626,0 -27.7627,0 0,-6.0658 z m 208.1032,52.9065 c 27.5264,-4.7619 46.8793,-29.3024 43.9417,-55.7206 -2.5615,-23.0358 -20.0639,-41.069 -44.175,-45.5145 -5.6521,-1.0422 -18.6868,-0.6877 -24.4964,0.6661 -19.0983,4.4505 -33.5621,16.3583 -50.2422,41.3634 -2.0542,3.0796 -3.9929,6.0851 -4.3081,6.6789 -0.5232,0.9855 -0.1579,1.7318 4.1871,8.5546 19.9111,31.2656 34.6217,43.062 55.9624,44.8763 3.8281,0.3254 15.1033,-0.2075 19.1305,-0.9042 z m -21.9301,-37.742 0,-7.6989 -7.4656,0 -7.4656,0 0,-7.4656 0,-7.4656 7.4656,0 7.4656,0 0,-7.6989 0,-7.6988 7.9321,0 7.9322,0 0,7.6988 0,7.6989 7.4656,0 7.4656,0 0,7.4656 0,7.4656 -7.4656,0 -7.4656,0 0,7.6989 0,7.6989 -7.9322,0 -7.9321,0 0,-7.6989 z m 76.0556,-81.6549 c 0,-2.924 -0.042,-3.0329 -1.1665,-3.0329 -0.7258,0 -1.1665,-0.2644 -1.1665,-0.6999 0,-0.5554 0.674,-0.6999 3.2662,-0.6999 2.5922,0 3.2662,0.1445 3.2662,0.6999 0,0.4666 -0.4666,0.6999 -1.3998,0.6999 l -1.3998,0 0,3.0329 c 0,2.3849 -0.1495,3.0329 -0.6999,3.0329 -0.5503,0 -0.6999,-0.648 -0.6999,-3.0329 z m 4.666,-0.7323 c 0,-3.6359 0.036,-3.7601 1.0479,-3.6162 0.8226,0.1171 1.1976,0.6759 1.7437,2.5988 0.3827,1.3473 0.8291,2.4496 0.9921,2.4496 0.1629,0 0.6018,-1.1023 0.9754,-2.4496 0.5249,-1.8932 0.9095,-2.4835 1.6929,-2.5988 0.969,-0.1425 1.0136,0.017 1.0136,3.6162 0,3.0358 -0.1356,3.7652 -0.6999,3.7652 -0.5176,0 -0.7115,-0.5771 -0.7445,-2.2163 l -0.045,-2.2164 -0.7372,2.2164 c -1,3.0063 -1.9989,2.9279 -2.9747,-0.2333 l -0.7562,-2.4497 -0.054,2.4497 c -0.041,1.8422 -0.2279,2.4496 -0.7542,2.4496 -0.5643,0 -0.6999,-0.7294 -0.6999,-3.7652 z"
       id="path3509-6"
       inkscape:connector-curvature="0" />
  </g>
</svg>
